<?xml version="1.0" encoding="UTF-8" standalone="no"?>
<!-- Creator: CorelDRAW -->

<svg
   xml:space="preserve"
   width="111.0737mm"
   height="52.45343mm"
   style="clip-rule:evenodd;fill-rule:evenodd;image-rendering:optimizeQuality;shape-rendering:geometricPrecision;text-rendering:geometricPrecision"
   viewBox="0 0 111.0737 52.45343"
   version="1.1"
   id="svg5"
   sodipodi:docname="Manda pra nutri SVG_2.SVG"
   inkscape:export-filename="Manda pra nutri SVG.SVG.png"
   inkscape:export-xdpi="84.666664"
   inkscape:export-ydpi="84.666664"
   inkscape:version="1.4.2 (ebf0e940d0, 2025-05-08)"
   xmlns:inkscape="http://www.inkscape.org/namespaces/inkscape"
   xmlns:sodipodi="http://sodipodi.sourceforge.net/DTD/sodipodi-0.dtd"
   xmlns:xlink="http://www.w3.org/1999/xlink"
   xmlns="http://www.w3.org/2000/svg"
   xmlns:svg="http://www.w3.org/2000/svg"><sodipodi:namedview
   id="namedview5"
   pagecolor="#505050"
   bordercolor="#eeeeee"
   borderopacity="1"
   inkscape:showpageshadow="0"
   inkscape:pageopacity="0"
   inkscape:pagecheckerboard="0"
   inkscape:deskcolor="#505050"
   inkscape:document-units="mm"
   inkscape:zoom="0.73575611"
   inkscape:cx="381.92003"
   inkscape:cy="448.51819"
   inkscape:window-width="2560"
   inkscape:window-height="1371"
   inkscape:window-x="26"
   inkscape:window-y="23"
   inkscape:window-maximized="0"
   inkscape:current-layer="Camada_x0020_1"><inkscape:page
     x="-2.1674857e-14"
     y="0"
     width="111.07369"
     height="52.45343"
     id="page2"
     margin="0"
     bleed="0" /></sodipodi:namedview>
 <defs
   id="defs1"><linearGradient
     id="swatch5"
     inkscape:swatch="solid"><stop
       style="stop-color:#059669;stop-opacity:1;"
       offset="0"
       id="stop5" /></linearGradient><style
     type="text/css"
     id="style1">
   <![CDATA[
    .fil2 {fill:none}
    .fil5 {fill:#00923F}
    .fil0 {fill:#42929D}
    .fil4 {fill:#EE9A69}
    .fil6 {fill:white}
    .fil1 {fill:#383431;fill-rule:nonzero}
    .fil3 {fill:#42929D;fill-rule:nonzero}
   ]]>
  </style><linearGradient
     inkscape:collect="always"
     xlink:href="#swatch5"
     id="linearGradient5"
     x1="60.452"
     y1="167.42551"
     x2="65.673538"
     y2="167.42551"
     gradientUnits="userSpaceOnUse"
     gradientTransform="matrix(0.54497538,0,0,0.50466813,38.586155,93.005443)" /></defs>
 <g
   id="Camada_x0020_1"
   inkscape:label="Camada 1"
   inkscape:groupmode="layer"
   transform="translate(-57.001254,-131.58622)">
  <metadata
   id="CorelCorpID_0Corel-Layer" />
  <rect
   class="fil0"
   x="71.531006"
   y="176.58504"
   width="2.8456085"
   height="1.8294169"
   rx="0.82681286"
   ry="1.3902093"
   id="rect1"
   style="fill:none;stroke:url(#linearGradient5);stroke-width:0.389197" />
  <g
   id="_249685624"
   transform="translate(21.176309,0.46803399)">
   <path
   id="_249685408"
   class="fil1"
   d="m 85.419434,156.53385 c 0,-0.73458 -0.17898,-1.30136 -0.54434,-1.69661 -0.36542,-0.39898 -0.88,-0.59661 -1.55118,-0.59661 -0.6339,0 -1.12237,0.19017 -1.46542,0.57424 -0.34305,0.38033 -0.51085,0.92474 -0.51085,1.63321 l -0.50339,-2.40508 c 0.35424,-0.7345 0.82407,-1.30128 1.40203,-1.70399 0.5817,-0.39899 1.21932,-0.60034 1.91654,-0.60034 0.81668,0 1.5139,0.18644 2.09187,0.55559 0.58169,0.37288 1.02169,0.91729 1.32372,1.63315 0.30204,0.71966 0.45492,1.58474 0.45492,2.59525 v 6.71925 h -2.6139 z m -13.38249,-4.63112 h 2.61383 v 11.33918 h -2.61383 z m 6.69687,4.63112 c 0,-0.73458 -0.17898,-1.30136 -0.54067,-1.69661 -0.35797,-0.39898 -0.87254,-0.59661 -1.53254,-0.59661 -0.64136,0 -1.13729,0.17152 -1.48773,0.51837 -0.34678,0.34671 -0.5221,0.83519 -0.5221,1.46908 l -0.23112,-2.34908 c 0.34298,-0.68983 0.78305,-1.21932 1.3162,-1.58847 0.53695,-0.36915 1.14102,-0.55186 1.81966,-0.55186 0.80169,0 1.48407,0.18644 2.04712,0.55559 0.56678,0.37288 0.99552,0.91729 1.29383,1.63315 0.30203,0.71966 0.45118,1.58474 0.45118,2.59525 v 6.71925 h -2.61383 z m 18.792865,-0.48102 c 0,-0.6339 -0.19017,-1.1261 -0.56305,-1.47281 -0.376545,-0.35058 -0.906035,-0.52583 -1.588405,-0.52583 -0.44,0 -0.86881,0.0709 -1.29017,0.20881 -0.42135,0.13797 -0.79796,0.33187 -1.12603,0.57797 l -1.74881,-1.46542 c 0.44745,-0.51451 1.02908,-0.91722 1.74881,-1.20434 0.71959,-0.28712 1.52128,-0.43254 2.40501,-0.43254 0.96576,0 1.793495,0.16406 2.479595,0.49593 0.68237,0.33186 1.20441,0.81288 1.56237,1.44305 0.35424,0.6301 0.53322,1.39078 0.53322,2.27823 v 7.28603 h -2.41254 z m -2.971795,7.35314 c -1.30501,0 -2.27823,-0.29084 -2.92705,-0.86881 -0.64881,-0.57796 -0.97322,-1.45796 -0.97322,-2.63627 0,-1.1223 0.32814,-1.96501 0.98441,-2.52433 0.65254,-0.56305 1.63695,-0.84271 2.94942,-0.84271 h 3.035185 l 0.15295,2.03213 h -3.176945 c -0.51831,0 -0.9061,0.10814 -1.15959,0.3282 -0.25356,0.21993 -0.38034,0.5518 -0.38034,1.00671 0,0.46983 0.164,0.82034 0.49593,1.0478 0.33179,0.22373 0.83518,0.33932 1.51383,0.33932 0.82779,0 1.44677,-0.0932 1.849495,-0.27593 0.40637,-0.17898 0.60772,-0.4661 0.60772,-0.85017 l 0.22746,1.62576 c -0.12305,0.35797 -0.33925,0.65627 -0.64874,0.89858 -0.3095,0.23871 -0.682385,0.41769 -1.118655,0.54074 -0.44,0.11925 -0.91355,0.17898 -1.43186,0.17898 z m 8.550026,-11.50324 h 2.61383 v 11.33918 h -2.61383 z m 6.71925,4.46705 c 0,-0.67491 -0.18278,-1.20068 -0.54441,-1.57356 -0.36542,-0.36915 -0.88372,-0.55559 -1.55118,-0.55559 -0.64136,0 -1.13729,0.17152 -1.48773,0.51837 -0.34685,0.34671 -0.5221,0.83519 -0.5221,1.46908 l -0.23112,-2.34908 c 0.35051,-0.69735 0.78671,-1.2305 1.30502,-1.5922 0.52203,-0.36542 1.12983,-0.54813 1.83084,-0.54813 1.21553,0 2.15525,0.40271 2.81898,1.20813 0.66366,0.80536 0.9918,1.94264 0.9918,3.41179 v 6.88332 h -2.6101 z m 12.06249,-9.0124 h 2.6101 v 15.88453 h -2.6101 z m -2.74061,16.05978 c -0.81667,0 -1.51396,-0.18644 -2.09186,-0.55932 -0.58169,-0.36922 -1.02169,-0.91356 -1.32372,-1.62576 -0.30204,-0.7122 -0.45119,-1.56976 -0.45119,-2.56915 v -2.16264 c 0,-1.00305 0.14915,-1.86441 0.44746,-2.58027 0.2983,-0.71966 0.73084,-1.26407 1.30508,-1.64068 0.57051,-0.37661 1.25661,-0.56305 2.05823,-0.56305 0.64136,0 1.22678,0.17899 1.75255,0.53695 0.52949,0.35424 0.95457,0.85763 1.27525,1.50637 l -0.23119,2.41254 c 0,-0.43627 -0.0746,-0.80542 -0.22746,-1.11111 -0.15661,-0.30577 -0.37661,-0.54075 -0.66745,-0.70109 -0.29085,-0.16027 -0.64509,-0.23864 -1.05898,-0.23864 -0.64882,0 -1.15221,0.20881 -1.51017,0.63396 -0.35417,0.42129 -0.53315,1.01044 -0.53315,1.76739 v 2.14027 c 0,0.75322 0.17898,1.33118 0.53315,1.73762 0.35796,0.41017 0.86135,0.61153 1.51017,0.61153 0.41389,0 0.76813,-0.0783 1.05898,-0.23865 0.29084,-0.16033 0.51084,-0.39525 0.66745,-0.70101 0.15289,-0.3057 0.22746,-0.67119 0.22746,-1.10373 l 0.15288,2.49085 c -0.22745,0.59288 -0.58915,1.06643 -1.08508,1.4206 -0.49966,0.35804 -1.10373,0.53702 -1.80841,0.53702 z m 14.84412,-7.36433 c 0,-0.6339 -0.19017,-1.1261 -0.56305,-1.47281 -0.37654,-0.35058 -0.9061,-0.52583 -1.5884,-0.52583 -0.44,0 -0.86882,0.0709 -1.29017,0.20881 -0.42136,0.13797 -0.79797,0.33187 -1.1261,0.57797 l -1.74875,-1.46542 c 0.44739,-0.51451 1.02909,-0.91722 1.74875,-1.20434 0.71966,-0.28712 1.52135,-0.43254 2.40508,-0.43254 0.96576,0 1.79349,0.16406 2.47959,0.49593 0.68237,0.33186 1.2044,0.81288 1.56237,1.44305 0.35424,0.6301 0.53322,1.39078 0.53322,2.27823 v 7.28603 h -2.41254 z m -2.97179,7.35314 c -1.30508,0 -2.27824,-0.29084 -2.92712,-0.86881 -0.64881,-0.57796 -0.97315,-1.45796 -0.97315,-2.63627 0,-1.1223 0.32807,-1.96501 0.98434,-2.52433 0.65254,-0.56305 1.63695,-0.84271 2.94949,-0.84271 h 3.03518 l 0.15288,2.03213 h -3.17688 c -0.5183,0 -0.9061,0.10814 -1.15966,0.3282 -0.25355,0.21993 -0.38033,0.5518 -0.38033,1.00671 0,0.46983 0.16406,0.82034 0.49593,1.0478 0.33186,0.22373 0.83525,0.33932 1.51389,0.33932 0.8278,0 1.44678,-0.0932 1.84943,-0.27593 0.40644,-0.17898 0.60779,-0.4661 0.60779,-0.85017 l 0.22746,1.62576 c -0.12305,0.35797 -0.33932,0.65627 -0.64881,0.89858 -0.30943,0.23871 -0.68231,0.41769 -1.11865,0.54074 -0.43993,0.11925 -0.91349,0.17898 -1.43179,0.17898 z"
   style="stroke-width:0.677965" />
   <path
   id="_249685024"
   class="fil1"
   d="m 72.274202,169.76702 h 2.26257 v 13.80458 h -2.26257 z m 4.6349,9.95728 c -0.59391,0 -1.10711,-0.14528 -1.54279,-0.43897 -0.4325,-0.29375 -0.75531,-0.71008 -0.96183,-1.24587 l 0.13229,-2.1464 c 0,0.37439 0.0646,0.69073 0.19693,0.95218 0.13228,0.26146 0.32592,0.4615 0.57767,0.60032 0.25181,0.13875 0.55844,0.20657 0.91671,0.20657 0.56161,0 0.99729,-0.17752 1.30398,-0.53255 0.3098,-0.35828 0.46474,-0.8553 0.46474,-1.50085 v -1.84295 c 0,-0.66167 -0.15494,-1.17487 -0.46474,-1.53638 -0.30669,-0.36151 -0.74237,-0.54226 -1.30398,-0.54226 -0.35827,0 -0.6649,0.0678 -0.91671,0.20334 -0.25175,0.13558 -0.44539,0.33569 -0.57767,0.60038 -0.13235,0.26463 -0.19693,0.5809 -0.19693,0.95535 l -0.20011,-2.03341 c 0.28405,-0.57455 0.65202,-1.0167 1.10711,-1.3298 0.45503,-0.31304 0.95859,-0.46797 1.51374,-0.46797 0.69396,0 1.2878,0.1614 1.78165,0.48085 0.49386,0.32281 0.87148,0.79407 1.12964,1.41374 0.25822,0.6229 0.38739,1.37174 0.38739,2.24645 v 1.85266 c 0,0.865 -0.12917,1.60414 -0.39056,2.21416 -0.26469,0.61002 -0.64555,1.07799 -1.14582,1.40403 -0.50026,0.32598 -1.10387,0.48738 -1.81071,0.48738 z m 5.90011,-9.95728 h 2.35615 v 9.81523 h -2.35615 z m 5.46762,2.52402 c -0.1517,-0.16463 -0.33893,-0.28727 -0.55838,-0.37438 -0.21946,-0.0839 -0.47444,-0.12594 -0.76496,-0.12594 -0.56808,0 -1.00699,0.16787 -1.32009,0.50673 -0.3131,0.33569 -0.46804,0.80372 -0.46804,1.4041 l -0.2001,-2.22387 c 0.29045,-0.5842 0.6649,-1.03935 1.11676,-1.36527 0.45515,-0.32598 0.95535,-0.48738 1.50408,-0.48738 0.42927,0 0.8166,0.0645 1.16199,0.19363 0.34857,0.12911 0.64873,0.31957 0.91012,0.57132 z m 8.27561,1.06835 c 0,-0.54873 -0.16457,-0.97476 -0.48738,-1.27492 -0.32592,-0.30339 -0.7843,-0.45509 -1.37498,-0.45509 -0.38079,0 -0.75201,0.0613 -1.11675,0.18069 -0.36468,0.11947 -0.69066,0.28734 -0.97471,0.50033 l -1.51379,-1.26846 c 0.38733,-0.44544 0.89083,-0.79401 1.51379,-1.04252 0.62291,-0.24852 1.31687,-0.37439 2.08182,-0.37439 0.83595,0 1.55249,0.14199 2.14634,0.42927 0.59067,0.28721 1.04259,0.7036 1.35239,1.2491 0.30663,0.54543 0.46156,1.20393 0.46156,1.97206 v 6.30679 h -2.08829 z m -2.57237,6.36491 c -1.1297,0 -1.97212,-0.25175 -2.53373,-0.75207 -0.56161,-0.50026 -0.84242,-1.26198 -0.84242,-2.28192 0,-0.97153 0.28404,-1.70096 0.85213,-2.1851 0.56484,-0.48739 1.41691,-0.72943 2.55302,-0.72943 h 2.62731 l 0.13235,1.75901 h -2.74996 c -0.44862,0 -0.7843,0.0936 -1.00376,0.28404 -0.21952,0.19046 -0.32921,0.47768 -0.32921,0.87148 0,0.40668 0.14199,0.71007 0.42926,0.90694 0.28722,0.1937 0.72296,0.29375 1.31039,0.29375 0.71655,0 1.25234,-0.0807 1.60091,-0.23887 0.3518,-0.15493 0.52608,-0.40344 0.52608,-0.73589 l 0.19687,1.40727 c -0.10646,0.30986 -0.29368,0.56802 -0.56155,0.77783 -0.26793,0.20658 -0.59067,0.36151 -0.96835,0.46803 -0.3808,0.10329 -0.79072,0.15493 -1.23934,0.15493 z"
   style="stroke-width:0.610449" />
   <path
   id="_249685528"
   class="fil1"
   d="m 104.19775,170.31617 h 2.51816 v 9.80578 h -2.51816 z m 6.4732,3.86297 c 0,-0.58363 -0.176,-1.0383 -0.52443,-1.36074 -0.35206,-0.31923 -0.85137,-0.48047 -1.49434,-0.48047 -0.61792,0 -1.09568,0.14836 -1.43333,0.44825 -0.33408,0.29989 -0.50294,0.72226 -0.50294,1.27047 l -0.22268,-2.03143 c 0.33765,-0.60303 0.75795,-1.06417 1.25725,-1.37693 0.50295,-0.31597 1.08848,-0.47396 1.76378,-0.47396 1.17103,0 2.07636,0.3482 2.71577,1.0447 0.6394,0.69652 0.95551,1.67997 0.95551,2.95043 v 5.95249 h -2.51459 z m 12.00167,-3.86297 h 2.50381 v 9.80578 h -2.50381 z m -3.91558,5.96217 c 0,0.57721 0.17244,1.02541 0.51373,1.34464 0.34486,0.31917 0.82982,0.47722 1.45488,0.47722 0.62148,0 1.1028,-0.15157 1.44046,-0.45466 0.33765,-0.29989 0.50651,-0.72874 0.50651,-1.28334 l 0.14724,2.09586 c -0.2119,0.51271 -0.56396,0.93836 -1.0525,1.28667 -0.49209,0.345 -1.09203,0.51912 -1.79967,0.51912 -1.18902,0 -2.10506,-0.34178 -2.75524,-1.02862 -0.64661,-0.68684 -0.97349,-1.65741 -0.97349,-2.91179 v -6.00727 h 2.51808 z m 12.4184,3.89198 c -0.9196,0 -1.5949,-0.21923 -2.02241,-0.65782 -0.42751,-0.43852 -0.63941,-1.0834 -0.63941,-1.94115 v -10.10886 h 2.51452 v 9.79609 c 0,0.24185 0.0503,0.42565 0.15808,0.55461 0.1042,0.12896 0.25865,0.19347 0.4634,0.19347 h 0.87293 v 2.16366 z m -3.78975,-9.85415 h 5.13686 v 1.97345 h -5.13686 z m 7.87055,0 h 2.62229 v 9.80578 h -2.62229 z m 6.08524,2.52158 c -0.16886,-0.16445 -0.3772,-0.28694 -0.6215,-0.37401 -0.24423,-0.0839 -0.52799,-0.12581 -0.85137,-0.12581 -0.63219,0 -1.12073,0.16771 -1.46915,0.50629 -0.3485,0.33531 -0.52093,0.80292 -0.52093,1.40263 l -0.22268,-2.22163 c 0.32324,-0.58369 0.73997,-1.03836 1.24291,-1.36399 0.50652,-0.32571 1.06328,-0.4869 1.67399,-0.4869 0.47775,0 0.90882,0.0644 1.29323,0.19342 0.38796,0.12902 0.72198,0.31923 1.01295,0.57074 z m 3.04257,-6.45226 h 2.51459 v 2.25719 h -2.51459 z m 0,3.93068 h 2.51459 v 9.80578 h -2.51459 z"
   style="stroke-width:0.650345" />
  </g>
  <rect
   class="fil2"
   x="57.001251"
   y="132.49936"
   width="31.905094"
   height="50.506683"
   rx="7.8633404"
   ry="7.2817554"
   id="rect2"
   style="stroke-width:0.524435" />
  <path
   class="fil3"
   d="m 63.788542,131.58621 h 20.302567 2.73e-4 v 0.003 c 1.59863,0 3.048973,0.50684 4.097724,1.32339 1.048642,0.8164 1.69956,1.9456 1.699724,3.19001 h 0.0036 v 3.5e-4 1.18703 4.6e-4 5.69987 c -0.343389,-1.16917 -0.997033,-2.19687 -1.857331,-2.97416 v -2.72571 -4.6e-4 -0.16154 c -0.04273,-0.9993 -0.478325,-1.90649 -1.159163,-2.57563 -0.717514,-0.70578 -1.703429,-1.14357 -2.784551,-1.14388 v 0.004 H 84.091112 63.788545 63.788 v -0.004 c -1.080904,3.1e-4 -2.066656,0.4381 -2.784061,1.14333 -0.681002,0.66959 -1.116709,1.57688 -1.159381,2.57648 v 0.16165 5e-5 31.21771 0.12783 c 0.04273,0.79127 0.478325,1.50971 1.159163,2.03951 0.717514,0.55887 1.703484,0.90548 2.784551,0.90578 v -0.003 h 2.73e-4 20.302567 5.45e-4 v 0.003 c 1.080904,-3e-4 2.06671,-0.34691 2.784116,-0.90532 0.680947,-0.53021 1.116654,-1.24865 1.159326,-2.04017 v -0.12794 -1e-4 -7.73787 c 0.860298,-0.77734 1.513942,-1.805 1.857331,-2.97416 v 10.71203 1e-4 9.70714 1e-4 h -0.0036 c -5.5e-5,1.57184 -0.651137,2.99809 -1.699887,4.02902 -1.048642,1.03124 -2.498822,1.67131 -4.097289,1.67136 v 0.004 h -5.45e-4 -20.302567 -2.73e-4 v -0.004 c -1.59863,0 -3.048973,-0.64012 -4.097724,-1.67136 -1.048642,-1.03103 -1.69956,-2.45713 -1.699724,-4.02866 h -0.0036 v -4.6e-4 -9.70683 -31.21771 -5e-5 -1.18744 -1e-4 h 0.0036 c 1.09e-4,-1.24456 0.651137,-2.37391 1.699887,-3.19026 1.048697,-0.81655 2.498876,-1.32334 4.097289,-1.32339 v -0.003 z m -3.943987,40.2273 v 6.40141 4.6e-4 h -0.0036 c 1.09e-4,1.06283 0.445409,2.03215 1.16276,2.73717 0.717514,0.70578 1.703484,1.14357 2.784551,1.14388 v -0.004 h 2.73e-4 20.302567 5.45e-4 v 0.004 c 1.080904,-3.1e-4 2.06671,-0.4381 2.784116,-1.14333 0.71746,-0.70547 1.162868,-1.67489 1.162923,-2.73808 h -0.0036 v -1e-4 -6.40151 c -1.034418,0.74857 -2.421707,1.20802 -3.943442,1.20808 v 0.003 h -5.45e-4 -20.302567 -2.73e-4 v -0.003 c -1.521789,0 -2.909187,-0.4594 -3.943714,-1.20798 z"
   id="path2"
   style="fill:#059669;fill-opacity:1;stroke-width:0.524435" />
  <path
   class="fil4"
   d="m 71.414709,160.49068 v 5.74605 l 6.433108,-5.74605 h 6.355884 c 2.949461,0 5.362667,-2.40878 5.362667,-5.35287 v -9.24572 c 0,-2.94413 -2.413206,-5.35291 -5.362667,-5.35291 h -14.83314 c -2.949461,0 -5.362667,2.40878 -5.362667,5.35291 v 9.24572 c 0,2.94409 2.413206,5.35287 5.362667,5.35287 z"
   id="path3"
   style="stroke-width:0.524435" />
  <path
   class="fil5"
   d="m 76.935964,154.92015 h 0.261261 v 3.37805 h -1.186193 v -3.03023 c -0.658331,0.11264 -1.46909,0.0798 -2.151345,-0.025 v 0 c 0,0 -6.682597,-2.65365 -5.786603,-8.6697 v 0 c 0,0 1.965399,-0.0477 4.023771,0.71825 1.272191,0.47353 2.71861,1.37794 3.824855,2.46338 1.257531,-2.0058 4.618776,-6.16467 10.553721,-5.45253 v 0 c 0,0 0.08098,2.17441 -0.887492,4.45965 -1.311974,3.09583 -5.285281,7.14045 -8.586197,6.1034 -0.02076,0.0189 -0.04278,0.0371 -0.06578,0.0548 z"
   id="path4"
   style="fill:#08583d;fill-opacity:1;stroke-width:0.524435" />
  <path
   class="fil6"
   d="m 83.470655,147.03017 c 0,0 -4.294951,0.76179 -5.087182,5.0165 0,0 5.590575,-1.88968 5.087182,-5.0165 z"
   id="path5"
   style="fill:#bebebe;fill-opacity:1;stroke-width:0.524435" />
 </g>
</svg>
